<?xml version="1.0" standalone="no"?>
<!DOCTYPE svg PUBLIC "-//W3C//DTD SVG 20010904//EN"
 "http://www.w3.org/TR/2001/REC-SVG-20010904/DTD/svg10.dtd">
<svg version="1.0" xmlns="http://www.w3.org/2000/svg"
 width="206.000000pt" height="206.000000pt" viewBox="0 0 206.000000 206.000000"
 preserveAspectRatio="xMidYMid meet">
<metadata>
Created by potrace 1.11, written by Peter Selinger 2001-2013
</metadata>
<g transform="translate(0.000000,206.000000) scale(0.100000,-0.100000)"
fill="#000000" stroke="none">
<path d="M1640 2044 c-30 -6 -75 -17 -100 -24 -25 -8 -49 -14 -55 -16 -22 -5
-123 -47 -170 -71 -147 -75 -284 -184 -368 -295 -16 -20 -63 -58 -105 -84 -42
-26 -106 -66 -142 -89 -36 -23 -162 -102 -280 -176 -118 -73 -216 -137 -218
-141 -2 -5 -8 -8 -12 -8 -13 0 -82 -42 -77 -46 2 -3 33 12 68 32 35 20 93 52
129 71 36 19 88 46 115 61 28 15 93 50 145 77 52 28 101 56 108 63 7 6 17 12
21 12 4 0 69 33 144 74 l137 74 93 3 c50 2 106 6 122 10 17 5 46 11 65 14 59
10 212 64 284 102 147 74 289 188 374 299 35 46 39 59 19 67 -24 9 -242 3
-297 -9z m233 -23 c19 -3 -2 -37 -62 -98 -39 -40 -155 -126 -226 -166 -74 -43
-214 -104 -254 -112 -10 -2 -42 -10 -72 -19 -30 -9 -55 -16 -57 -15 -1 0 -26
-2 -55 -6 -77 -9 -156 -12 -167 -5 -14 8 77 108 153 168 166 131 399 229 586
247 24 2 45 5 46 7 3 3 85 2 108 -1z"/>
<path d="M756 1860 c-113 -58 -222 -170 -291 -301 -34 -64 -66 -172 -58 -195
5 -16 93 27 161 77 29 22 77 70 107 106 80 97 153 261 143 321 -3 21 -4 21
-62 -8z m-8 -112 c-37 -88 -65 -131 -124 -197 -66 -73 -157 -139 -162 -118 -4
19 37 110 80 177 57 89 216 230 226 201 2 -5 -7 -33 -20 -63z"/>
<path d="M989 1445 c-2 -2 -20 -6 -41 -9 -82 -13 -234 -79 -223 -97 10 -15
114 -65 174 -83 137 -41 344 -43 473 -6 21 6 40 11 43 10 13 -1 125 61 125 70
0 16 -143 79 -225 99 -57 14 -115 20 -201 20 -67 0 -124 -2 -125 -4z m286 -48
c83 -18 185 -55 185 -67 0 -5 -37 -21 -82 -36 -104 -34 -294 -42 -396 -18 -83
19 -172 53 -172 65 0 28 217 77 325 73 39 -1 102 -9 140 -17z"/>
<path d="M549 1130 c-462 -94 -703 -629 -412 -916 106 -104 271 -154 433 -130
97 14 120 19 163 32 26 9 61 27 77 40 l29 25 -20 57 c-17 50 -29 94 -45 167
-5 24 -17 142 -17 170 0 158 66 324 174 434 l43 44 -23 18 c-26 22 -112 54
-166 64 -76 13 -152 12 -236 -5z m286 -50 c78 -27 79 -28 51 -57 -66 -66 -123
-177 -150 -295 -14 -62 -16 -295 -3 -328 4 -8 9 -26 11 -40 12 -62 17 -80 31
-120 8 -23 15 -46 15 -50 0 -9 -72 -40 -110 -47 -163 -32 -214 -33 -312 -8
-159 40 -267 144 -308 293 -44 165 49 397 210 524 97 77 215 131 313 145 23 3
44 7 47 10 10 10 151 -8 205 -27z"/>
<path d="M1255 1120 c-11 -4 -23 -6 -26 -4 -3 2 -29 -5 -58 -16 -165 -60 -267
-174 -307 -341 -3 -13 -6 -62 -6 -109 0 -218 145 -442 367 -565 102 -57 180
-77 315 -81 111 -2 133 0 194 21 120 42 213 120 265 222 42 84 50 121 47 237
-2 96 -6 121 -30 181 -73 178 -217 327 -391 404 -106 47 -308 75 -370 51z
m195 -41 c25 -5 56 -12 69 -15 70 -15 214 -95 281 -157 133 -121 213 -293 212
-455 -1 -45 -6 -91 -12 -101 -5 -11 -10 -27 -10 -37 0 -20 -52 -107 -89 -147
-90 -100 -274 -150 -445 -121 -121 20 -286 106 -381 199 -33 32 -98 129 -126
189 -91 196 -66 390 70 526 101 101 282 151 431 119z"/>
<path d="M1871 474 c-47 -20 -135 -114 -166 -179 -15 -29 -29 -77 -32 -106 -4
-46 -2 -57 16 -76 57 -60 178 9 262 148 65 107 52 230 -25 229 -11 -1 -36 -7
-55 -16z m77 -36 c59 -59 -115 -317 -206 -306 -25 3 -27 7 -27 48 1 82 83 207
164 250 43 23 53 24 69 8z"/>
</g>
</svg>
